<svg xmlns="http://www.w3.org/2000/svg" viewBox="0 0 512 512" width="512" height="512">
  <defs>
    <linearGradient id="turf" x1="0" y1="0" x2="0" y2="1">
      <stop offset="0" stop-color="#23a046" />
      <stop offset="1" stop-color="#178038" />
    </linearGradient>
    <linearGradient id="ball" x1="0" y1="0" x2="1" y2="1">
      <stop offset="0" stop-color="#8a4d18" />
      <stop offset="1" stop-color="#6a360e" />
    </linearGradient>
  </defs>
  <rect width="512" height="512" rx="104" fill="url(#turf)" />
  <g stroke="#ffffff" stroke-linecap="round">
    <line x1="104" y1="70" x2="104" y2="442" stroke-width="8" opacity="0.45" />
    <line x1="256" y1="56" x2="256" y2="456" stroke-width="12" opacity="0.6" />
    <line x1="408" y1="70" x2="408" y2="442" stroke-width="8" opacity="0.45" />
  </g>
  <g transform="translate(256 256) rotate(-24)">
    <ellipse rx="132" ry="84" fill="url(#ball)" stroke="#3a1d06" stroke-width="10" />
    <path d="M -118 0 A 132 84 0 0 1 118 0 A 132 84 0 0 1 -118 0" fill="none" stroke="#fff" stroke-width="0" />
    <line x1="-74" y1="0" x2="74" y2="0" stroke="#ffffff" stroke-width="12" stroke-linecap="round" />
    <g stroke="#ffffff" stroke-width="9" stroke-linecap="round">
      <line x1="-44" y1="-15" x2="-44" y2="15" />
      <line x1="-15" y1="-18" x2="-15" y2="18" />
      <line x1="15" y1="-18" x2="15" y2="18" />
      <line x1="44" y1="-15" x2="44" y2="15" />
    </g>
    <line x1="-118" y1="0" x2="-100" y2="0" stroke="#fff" stroke-width="12" stroke-linecap="round" />
    <line x1="100" y1="0" x2="118" y2="0" stroke="#fff" stroke-width="12" stroke-linecap="round" />
  </g>
</svg>
